<svg xmlns="http://www.w3.org/2000/svg" viewBox="0 0 100 100" preserveAspectRatio="xMidYMid" width="602" height="602" style="shape-rendering: auto; display: block;" xmlns:xlink="http://www.w3.org/1999/xlink">
  <g>
    <g transform="rotate(0 50 50)">
      <rect fill="#007bff" height="12" width="6" ry="6" rx="3" y="24" x="47">
        <animate repeatCount="indefinite" begin="-0.7161458333333334s" dur="0.78125s" keyTimes="0;1" values="1;0" attributeName="opacity"></animate>
      </rect>
    </g>
    <g transform="rotate(30 50 50)">
      <rect fill="#007bff" height="12" width="6" ry="6" rx="3" y="24" x="47">
        <animate repeatCount="indefinite" begin="-0.6510416666666667s" dur="0.78125s" keyTimes="0;1" values="1;0" attributeName="opacity"></animate>
      </rect>
    </g>
    <g transform="rotate(60 50 50)">
      <rect fill="#007bff" height="12" width="6" ry="6" rx="3" y="24" x="47">
        <animate repeatCount="indefinite" begin="-0.5859375s" dur="0.78125s" keyTimes="0;1" values="1;0" attributeName="opacity"></animate>
      </rect>
    </g>
    <g transform="rotate(90 50 50)">
      <rect fill="#007bff" height="12" width="6" ry="6" rx="3" y="24" x="47">
        <animate repeatCount="indefinite" begin="-0.5208333333333334s" dur="0.78125s" keyTimes="0;1" values="1;0" attributeName="opacity"></animate>
      </rect>
    </g>
    <g transform="rotate(120 50 50)">
      <rect fill="#007bff" height="12" width="6" ry="6" rx="3" y="24" x="47">
        <animate repeatCount="indefinite" begin="-0.4557291666666667s" dur="0.78125s" keyTimes="0;1" values="1;0" attributeName="opacity"></animate>
      </rect>
    </g>
    <g transform="rotate(150 50 50)">
      <rect fill="#007bff" height="12" width="6" ry="6" rx="3" y="24" x="47">
        <animate repeatCount="indefinite" begin="-0.390625s" dur="0.78125s" keyTimes="0;1" values="1;0" attributeName="opacity"></animate>
      </rect>
    </g>
    <g transform="rotate(180 50 50)">
      <rect fill="#007bff" height="12" width="6" ry="6" rx="3" y="24" x="47">
        <animate repeatCount="indefinite" begin="-0.32552083333333337s" dur="0.78125s" keyTimes="0;1" values="1;0" attributeName="opacity"></animate>
      </rect>
    </g>
    <g transform="rotate(210 50 50)">
      <rect fill="#007bff" height="12" width="6" ry="6" rx="3" y="24" x="47">
        <animate repeatCount="indefinite" begin="-0.2604166666666667s" dur="0.78125s" keyTimes="0;1" values="1;0" attributeName="opacity"></animate>
      </rect>
    </g>
    <g transform="rotate(240 50 50)">
      <rect fill="#007bff" height="12" width="6" ry="6" rx="3" y="24" x="47">
        <animate repeatCount="indefinite" begin="-0.1953125s" dur="0.78125s" keyTimes="0;1" values="1;0" attributeName="opacity"></animate>
      </rect>
    </g>
    <g transform="rotate(270 50 50)">
      <rect fill="#007bff" height="12" width="6" ry="6" rx="3" y="24" x="47">
        <animate repeatCount="indefinite" begin="-0.13020833333333334s" dur="0.78125s" keyTimes="0;1" values="1;0" attributeName="opacity"></animate>
      </rect>
    </g>
    <g transform="rotate(300 50 50)">
      <rect fill="#007bff" height="12" width="6" ry="6" rx="3" y="24" x="47">
        <animate repeatCount="indefinite" begin="-0.06510416666666667s" dur="0.78125s" keyTimes="0;1" values="1;0" attributeName="opacity"></animate>
      </rect>
    </g>
    <g transform="rotate(330 50 50)">
      <rect fill="#007bff" height="12" width="6" ry="6" rx="3" y="24" x="47">
        <animate repeatCount="indefinite" begin="0s" dur="0.78125s" keyTimes="0;1" values="1;0" attributeName="opacity"></animate>
      </rect>
    </g>
  </g>
</svg>
